<?xml version="1.0" standalone="no"?>
<!DOCTYPE svg PUBLIC "-//W3C//DTD SVG 20010904//EN"
 "http://www.w3.org/TR/2001/REC-SVG-20010904/DTD/svg10.dtd">
<svg version="1.0" xmlns="http://www.w3.org/2000/svg"
 width="579.000000pt" height="583.000000pt" viewBox="0 0 579.000000 583.000000"
 preserveAspectRatio="xMidYMid meet">

<g transform="translate(0.000000,583.000000) scale(0.100000,-0.100000)"
fill="#000000" stroke="none">
<path d="M2610 5813 c-843 -86 -1571 -492 -2069 -1152 -247 -328 -407 -668
-507 -1075 l-34 -140 0 -373 0 -373 82 51 c403 251 703 586 918 1024 110 225
132 294 134 425 2 116 10 141 59 170 52 32 93 26 138 -19 33 -32 39 -45 39
-80 l0 -41 185 0 185 0 0 30 c0 37 21 90 43 108 24 20 83 26 117 12 54 -22 65
-58 66 -215 1 -160 2 -163 112 -370 126 -238 284 -456 457 -631 176 -178 347
-290 528 -346 104 -32 292 -32 392 -1 106 34 189 88 295 193 207 205 350 486
350 688 0 150 25 197 107 197 37 0 49 -5 69 -28 13 -15 27 -46 30 -68 l7 -39
146 0 146 0 0 39 c1 71 74 118 134 86 53 -27 63 -62 71 -245 6 -158 8 -169 44
-265 52 -138 193 -422 264 -530 133 -205 329 -416 501 -539 62 -44 85 -56 91
-46 4 7 15 53 24 102 132 722 1 1442 -377 2068 -199 329 -533 677 -862 897
-394 264 -825 422 -1303 478 -115 14 -480 19 -582 8z"/>
<path d="M1360 3660 l0 -320 195 0 195 0 0 320 0 320 -195 0 -195 0 0 -320z"/>
<path d="M1079 3688 c-28 -57 -83 -151 -121 -211 l-68 -108 0 -621 0 -621 78
7 c42 4 98 9 125 13 l47 6 0 818 c0 451 -2 819 -4 819 -2 0 -28 -46 -57 -102z"/>
<path d="M1972 3003 l3 -768 45 2 c25 1 80 5 123 8 l77 7 0 559 0 559 -73 112
c-40 62 -94 152 -120 201 -27 48 -50 87 -53 87 -2 0 -3 -345 -2 -767z"/>
<path d="M4300 3288 c0 -167 4 -309 8 -316 7 -9 43 -12 148 -10 l139 3 3 313
2 312 -150 0 -150 0 0 -302z"/>
<path d="M4057 3280 c-27 -52 -73 -132 -103 -177 l-54 -81 0 -416 0 -416 23
-4 c36 -8 181 -25 184 -22 2 2 2 275 1 607 l-3 604 -48 -95z"/>
<path d="M2300 2756 l0 -509 127 8 c70 4 131 9 135 11 5 3 8 168 8 367 l0 362
-135 135 -135 135 0 -509z"/>
<path d="M729 3163 c-42 -49 -105 -114 -139 -144 -34 -30 -68 -66 -76 -81 -11
-22 -14 -103 -14 -448 l0 -420 21 0 c33 0 273 42 282 50 4 3 6 260 5 569 l-3
564 -76 -90z"/>
<path d="M4810 2618 c0 -318 3 -578 8 -578 4 0 44 -9 90 -19 l82 -19 0 422 0
422 -90 175 -89 174 -1 -577z"/>
<path d="M1370 2635 c0 -250 3 -455 8 -455 4 0 84 9 177 20 94 11 178 20 188
20 16 0 17 27 17 435 l0 435 -195 0 -195 0 0 -455z"/>
<path d="M3746 2868 c-39 -32 -87 -66 -108 -76 l-37 -17 -1 -277 0 -276 105
-7 c58 -4 108 -5 111 -3 2 3 3 165 2 360 l-3 355 -69 -59z"/>
<path d="M2640 2596 l0 -326 125 0 125 0 0 250 0 250 -49 24 c-26 14 -77 44
-112 68 -35 24 -70 47 -76 52 -10 6 -13 -61 -13 -318z"/>
<path d="M375 2824 c-39 -34 -264 -189 -337 -231 l-38 -22 0 -97 c0 -67 8
-131 25 -208 31 -140 79 -291 91 -290 5 1 75 16 157 34 l147 33 0 409 c0 224
-1 408 -2 408 -2 -1 -21 -17 -43 -36z"/>
<path d="M4300 2457 l0 -324 128 -17 c70 -10 137 -20 150 -23 l22 -5 0 346 0
346 -150 0 -150 0 0 -323z"/>
<path d="M2970 2503 l0 -230 61 -7 c34 -3 88 -6 120 -6 l59 0 0 209 c0 116 -4
212 -8 215 -4 2 -48 12 -97 20 -50 9 -100 19 -112 22 l-23 6 0 -229z"/>
<path d="M3440 2709 c-36 -10 -86 -18 -112 -18 l-48 -1 0 -219 0 -219 78 -6
c42 -4 94 -9 115 -11 l37 -5 0 250 c0 137 -1 249 -2 249 -2 -1 -32 -10 -68
-20z"/>
<path d="M5070 2352 l0 -371 38 -10 c20 -6 60 -17 87 -26 28 -8 51 -15 53 -15
1 0 2 129 2 288 l-1 287 -89 109 -90 108 0 -370z"/>
<path d="M5334 2329 c3 -34 6 -143 6 -243 l0 -181 117 -42 c88 -32 119 -40
125 -30 9 15 98 281 98 294 0 10 -331 263 -344 263 -5 0 -6 -28 -2 -61z"/>
<path d="M2810 1963 c-184 -5 -437 -23 -638 -45 l-202 -22 2 -360 3 -359 160
-32 c195 -39 270 -61 635 -180 619 -202 780 -235 1161 -235 l179 0 0 594 c0
558 -1 595 -17 600 -30 8 -306 26 -583 36 -244 9 -458 10 -700 3z"/>
<path d="M4310 1325 c0 -531 1 -565 18 -565 9 0 71 9 137 20 66 11 123 20 128
20 4 0 7 234 7 519 0 486 -1 520 -17 525 -18 5 -254 46 -267 46 -3 0 -6 -254
-6 -565z"/>
<path d="M1540 1844 c-91 -13 -166 -23 -167 -24 -2 0 -3 -137 -3 -305 l0 -305
200 0 200 0 0 330 0 330 -32 -1 c-18 -1 -107 -12 -198 -25z"/>
<path d="M4810 1315 l0 -488 58 7 c55 6 60 9 128 79 149 154 330 404 433 598
28 53 51 100 51 106 0 5 -46 25 -102 43 -105 34 -448 122 -525 135 l-43 7 0
-487z"/>
<path d="M860 1731 c-320 -66 -587 -139 -583 -159 4 -17 112 -202 166 -282 61
-90 163 -226 177 -235 5 -3 40 5 78 19 80 28 302 90 385 106 l57 11 0 295 0
294 -22 -1 c-13 0 -129 -22 -258 -48z"/>
<path d="M1265 994 c-97 -10 -268 -38 -360 -59 -165 -39 -161 -27 -48 -136
416 -402 935 -663 1533 -771 146 -26 651 -38 820 -18 444 51 885 213 1264 464
133 88 185 129 143 113 -31 -12 -222 -46 -317 -56 -175 -19 -391 -24 -529 -12
-284 25 -462 67 -991 233 -614 192 -842 237 -1245 243 -126 1 -248 1 -270 -1z"/>
</g>
</svg>
